<svg xmlns="http://www.w3.org/2000/svg" width="100%" height="100%" viewBox="0 0 24 24" fill="none">
    <path fill-rule="evenodd" clip-rule="evenodd" d="M6.00039 2.3999C6.66313 2.3999 7.20039 2.93716 7.20039 3.5999V4.7999H8.40039C9.06313 4.7999 9.60039 5.33716 9.60039 5.9999C9.60039 6.66264 9.06313 7.1999 8.40039 7.1999H7.20039V8.3999C7.20039 9.06264 6.66313 9.5999 6.00039 9.5999C5.33765 9.5999 4.80039 9.06264 4.80039 8.3999V7.1999H3.60039C2.93765 7.1999 2.40039 6.66264 2.40039 5.9999C2.40039 5.33716 2.93765 4.7999 3.60039 4.7999H4.80039V3.5999C4.80039 2.93716 5.33765 2.3999 6.00039 2.3999ZM6.00039 14.3999C6.66313 14.3999 7.20039 14.9372 7.20039 15.5999V16.7999H8.40039C9.06313 16.7999 9.60039 17.3372 9.60039 17.9999C9.60039 18.6626 9.06313 19.1999 8.40039 19.1999H7.20039V20.3999C7.20039 21.0626 6.66313 21.5999 6.00039 21.5999C5.33765 21.5999 4.80039 21.0626 4.80039 20.3999V19.1999H3.60039C2.93765 19.1999 2.40039 18.6626 2.40039 17.9999C2.40039 17.3372 2.93765 16.7999 3.60039 16.7999H4.80039V15.5999C4.80039 14.9372 5.33765 14.3999 6.00039 14.3999Z" fill="currentColor"/>
    <path fill-rule="evenodd" clip-rule="evenodd" d="M14.4003 2.3999C14.9448 2.3999 15.421 2.76648 15.5604 3.29283L16.9754 8.63862L21 10.9605C21.3715 11.1748 21.6003 11.571 21.6003 11.9999C21.6003 12.4288 21.3715 12.825 21 13.0393L16.9754 15.3612L15.5604 20.707C15.421 21.2333 14.9448 21.5999 14.4003 21.5999C13.8558 21.5999 13.3796 21.2333 13.2403 20.707L11.8252 15.3612L7.80072 13.0393C7.42925 12.825 7.20039 12.4288 7.20039 11.9999C7.20039 11.571 7.42925 11.1748 7.80072 10.9605L11.8252 8.63862L13.2403 3.29283C13.3796 2.76648 13.8558 2.3999 14.4003 2.3999Z" fill="currentColor"/>
</svg>