<svg width="50" height="50" viewBox="0 0 80 80" fill="none" xmlns="http://www.w3.org/2000/svg">
    <path  d="M75 40C77.7614 40 80.0322 42.2473 79.6879 44.9872C78.8502 51.6543 76.3419 58.0318 72.3607 63.5114C67.3956 70.3453 60.3944 75.4319 52.3607 78.0423C44.3269 80.6526 35.6731 80.6526 27.6393 78.0423C19.6056 75.4319 12.6044 70.3453 7.63932 63.5114C2.6742 56.6775 -7.38475e-07 48.4472 0 40C7.38475e-07 31.5528 2.6742 23.3225 7.63932 16.4886C12.6044 9.65468 19.6056 4.56806 27.6393 1.95774C34.081 -0.135299 40.9215 -0.550071 47.5212 0.713422C50.2334 1.23266 51.6689 4.08675 50.8156 6.71302L50.1976 8.61514C49.3442 11.2414 46.5208 12.6302 43.7848 12.2569C39.6291 11.69 35.3769 12.0612 31.3475 13.3704C25.7239 15.1976 20.8231 18.7583 17.3475 23.542C13.8719 28.3257 12 34.087 12 40C12 45.913 13.8719 51.6743 17.3475 56.458C20.8231 61.2417 25.7239 64.8024 31.3475 66.6296C36.9711 68.4568 43.0289 68.4568 48.6525 66.6296C54.2761 64.8024 59.1769 61.2417 62.6525 56.458C65.1427 53.0304 66.8097 49.101 67.5548 44.9736C68.0453 42.2561 70.2386 40 73 40H75Z" fill="#31D79B"/>
    <path  d="M56.0961 51.7953C57.5998 53.0098 57.8498 55.2371 56.4241 56.5425C53.6797 59.0555 50.3604 60.8876 46.7347 61.8641C41.9767 63.1455 36.9352 62.8878 32.3327 61.1279C27.7302 59.3679 23.803 56.1961 21.114 52.067C18.425 47.9379 17.1122 43.0635 17.3637 38.1424C17.6153 33.2213 19.4183 28.5061 22.5144 24.6728C25.6104 20.8394 29.8406 18.0846 34.5986 16.8031C39.3566 15.5217 44.3981 15.7794 49.0006 17.5393C52.5078 18.8805 55.6229 21.0415 58.0968 23.8212C59.3819 25.2652 58.9062 27.4554 57.2864 28.5102C55.6666 29.5651 53.5202 29.072 52.145 27.7135C50.5444 26.1325 48.6252 24.8901 46.5004 24.0776C43.2786 22.8456 39.7496 22.6652 36.419 23.5623C33.0884 24.4593 30.1273 26.3876 27.9601 29.071C25.7928 31.7544 24.5307 35.055 24.3546 38.4997C24.1785 41.9445 25.0975 45.3566 26.9798 48.247C28.8621 51.1373 31.6111 53.3576 34.8329 54.5896C38.0546 55.8216 41.5837 56.002 44.9143 55.1049C47.1109 54.5133 49.1468 53.4731 50.9002 52.0636C52.4068 50.8525 54.5923 50.5808 56.0961 51.7953Z" fill="#A1A1A1"/>
</svg>
