<svg width="100%" height="100%" viewBox="0 0 56 56" fill="none" xmlns="http://www.w3.org/2000/svg">
<g filter="url(#filter0_d_1026_23957)">
<path fill-rule="evenodd" clip-rule="evenodd" d="M29.5607 16.2556C30.0603 16.413 30.4 16.8763 30.4 17.4V23.4L35.2 23.4C35.6474 23.4 36.0577 23.649 36.2644 24.0459C36.471 24.4427 36.4397 24.9216 36.1831 25.2882L27.7831 37.2882C27.4827 37.7173 26.9387 37.902 26.4392 37.7445C25.9397 37.5871 25.6 37.1238 25.6 36.6L25.6 30.6H20.8C20.3525 30.6 19.9422 30.3511 19.7356 29.9542C19.529 29.5573 19.5603 29.0784 19.8169 28.7119L28.2169 16.7119C28.5173 16.2828 29.0612 16.0981 29.5607 16.2556Z" fill="currentColor"/>
<rect x="2.5" y="1.5" width="51" height="51" rx="7.5" stroke="currentColor"/>
</g>
<defs>
<filter id="filter0_d_1026_23957" x="0" y="0" width="56" height="56" filterUnits="userSpaceOnUse" color-interpolation-filters="sRGB">
<feFlood flood-opacity="0" result="BackgroundImageFix"/>
<feColorMatrix in="SourceAlpha" type="matrix" values="0 0 0 0 0 0 0 0 0 0 0 0 0 0 0 0 0 0 127 0" result="hardAlpha"/>
<feOffset dy="1"/>
<feGaussianBlur stdDeviation="1"/>
<feComposite in2="hardAlpha" operator="out"/>
<feColorMatrix type="matrix" values="0 0 0 0 0 0 0 0 0 0 0 0 0 0 0 0 0 0 0.05 0"/>
<feBlend mode="normal" in2="BackgroundImageFix" result="effect1_dropShadow_1026_23957"/>
<feBlend mode="normal" in="SourceGraphic" in2="effect1_dropShadow_1026_23957" result="shape"/>
</filter>
</defs>
</svg>
