<svg width="100%" height="100%" viewBox="0 0 56 56" fill="none" xmlns="http://www.w3.org/2000/svg">
<g filter="url(#filter0_d_1026_23981)">
<path fill-rule="evenodd" clip-rule="evenodd" d="M22 25.8V23.4C22 20.0863 24.6863 17.4 28 17.4C31.3137 17.4 34 20.0863 34 23.4V25.8C35.3255 25.8 36.4 26.8745 36.4 28.2V34.2C36.4 35.5255 35.3255 36.6 34 36.6H22C20.6745 36.6 19.6 35.5255 19.6 34.2V28.2C19.6 26.8745 20.6745 25.8 22 25.8ZM31.6 23.4V25.8H24.4V23.4C24.4 21.4118 26.0118 19.8 28 19.8C29.9882 19.8 31.6 21.4118 31.6 23.4Z" fill="currentColor"/>
<rect x="2.5" y="1.5" width="51" height="51" rx="7.5" stroke="currentColor"/>
</g>
<defs>
<filter id="filter0_d_1026_23981" x="0" y="0" width="56" height="56" filterUnits="userSpaceOnUse" color-interpolation-filters="sRGB">
<feFlood flood-opacity="0" result="BackgroundImageFix"/>
<feColorMatrix in="SourceAlpha" type="matrix" values="0 0 0 0 0 0 0 0 0 0 0 0 0 0 0 0 0 0 127 0" result="hardAlpha"/>
<feOffset dy="1"/>
<feGaussianBlur stdDeviation="1"/>
<feComposite in2="hardAlpha" operator="out"/>
<feColorMatrix type="matrix" values="0 0 0 0 0 0 0 0 0 0 0 0 0 0 0 0 0 0 0.05 0"/>
<feBlend mode="normal" in2="BackgroundImageFix" result="effect1_dropShadow_1026_23981"/>
<feBlend mode="normal" in="SourceGraphic" in2="effect1_dropShadow_1026_23981" result="shape"/>
</filter>
</defs>
</svg>
